<svg width="352" height="540" viewBox="0 0 352 540" fill="none" xmlns="http://www.w3.org/2000/svg">
<path d="M348.074 338.985C335.542 251.546 289.405 185.791 245.123 192.15C239.822 192.927 234.712 194.686 230.057 197.337C239.019 219.675 244.809 243.16 247.258 267.105C248.404 279.092 248.914 291.132 248.783 303.174C248.783 390.519 215.929 461.344 175.612 461.344C135.296 461.344 102.441 390.519 102.441 303.174C102.441 245.89 117.672 196.562 137.642 167.955C176.974 111.634 208.044 106.213 248.126 105.838H326.624C328.292 105.87 329.917 105.309 331.209 104.255C332.502 103.201 333.378 101.723 333.683 100.083C333.987 98.4434 333.699 96.7489 332.871 95.3014C332.042 93.854 330.727 92.7477 329.159 92.1795L271.664 70.1438C246.343 26.5885 212.644 0 175.636 0C101.151 0 40.0184 107.644 33.6588 244.858C19.3907 270.085 8.3845 302.634 3.15129 338.985C-0.319065 362.48 -0.925801 386.309 1.34434 409.95C1.44843 412.213 2.36747 414.362 3.93191 416.001C5.49636 417.64 7.60066 418.657 9.85653 418.866C12.1124 419.075 14.3677 418.46 16.2062 417.137C18.0447 415.813 19.3424 413.869 19.86 411.663C25.0461 393.546 32.323 376.094 41.5438 359.66C51.2358 410.232 68.7894 453.74 91.4118 484.999C92.6219 486.661 93.4906 488.546 93.9677 490.546C94.4447 492.546 94.5207 494.621 94.1912 496.65C93.8617 498.679 93.1332 500.623 92.0479 502.369C90.9626 504.116 89.5421 505.629 87.8682 506.823C83.1765 510.12 78.7866 513.827 74.75 517.9C72.9409 519.77 71.737 522.142 71.2951 524.706C70.8533 527.271 71.194 529.909 72.2729 532.277C73.3518 534.645 75.1188 536.633 77.3438 537.982C79.5688 539.332 82.1485 539.98 84.7471 539.842C113.213 538.387 143.791 537.495 175.612 537.495C207.434 537.495 238.012 538.269 266.478 539.842C269.076 539.98 271.656 539.332 273.881 537.982C276.106 536.633 277.873 534.645 278.952 532.277C280.031 529.909 280.372 527.271 279.93 524.706C279.488 522.142 278.284 519.77 276.475 517.9C272.438 513.827 268.048 510.12 263.357 506.823C261.683 505.629 260.262 504.116 259.177 502.369C258.092 500.623 257.363 498.679 257.034 496.65C256.704 494.621 256.78 492.546 257.257 490.546C257.734 488.546 258.603 486.661 259.813 484.999C282.436 453.74 299.966 410.232 309.681 359.636C318.898 376.081 326.174 393.54 331.365 411.663C331.882 413.869 333.18 415.813 335.019 417.137C336.857 418.46 339.113 419.075 341.368 418.866C343.624 418.657 345.729 417.64 347.293 416.001C348.857 414.362 349.776 412.213 349.881 409.95C352.151 386.309 351.544 362.48 348.074 338.985ZM198.986 39.5424C201.668 39.5425 204.291 40.3365 206.522 41.8244C208.754 43.3123 210.496 45.4275 211.528 47.9035C212.559 50.3795 212.835 53.1054 212.32 55.7379C211.805 58.3704 210.523 60.7916 208.634 62.6965C206.746 64.6013 204.336 65.9045 201.708 66.442C199.08 66.9795 196.352 66.727 193.867 65.7166C191.382 64.7062 189.252 62.9829 187.745 60.7639C186.238 58.5449 185.421 55.9296 185.398 53.2473C185.383 51.4531 185.723 49.6736 186.399 48.0115C187.075 46.3494 188.073 44.8377 189.336 43.5635C190.6 42.2894 192.103 41.278 193.759 40.5878C195.415 39.8976 197.192 39.5423 198.986 39.5424Z" fill="#9458A1"/>
</svg>
